<svg xmlns="http://www.w3.org/2000/svg" xmlns:xlink="http://www.w3.org/1999/xlink" width="500" zoomAndPan="magnify" viewBox="0 0 375 374.999991" height="500" preserveAspectRatio="xMidYMid meet" version="1.2"><defs><clipPath id="3de4c1212c"><path d="M 49.289062 20.957031 L 325.429688 20.957031 L 325.429688 370.457031 L 49.289062 370.457031 Z M 49.289062 20.957031 "/></clipPath><clipPath id="70246e3d83"><path d="M 59.066406 126 L 325.429688 126 L 325.429688 370.457031 L 59.066406 370.457031 Z M 59.066406 126 "/></clipPath><clipPath id="e8af2e4c3a"><path d="M 167 41 L 208 41 L 208 370.457031 L 167 370.457031 Z M 167 41 "/></clipPath></defs><g id="b1a30765bc"><g clip-rule="nonzero" clip-path="url(#3de4c1212c)"><path style=" stroke:none;fill-rule:nonzero;fill:#66a5d3;fill-opacity:1;" d="M 188.027344 20.957031 C 187.804688 20.957031 187.582031 20.964844 187.359375 20.964844 C 187.136719 20.964844 186.917969 20.957031 186.695312 20.957031 C 110.808594 20.957031 49.289062 82.542969 49.289062 158.515625 C 49.289062 266.050781 176.171875 362.238281 186.082031 369.585938 C 186.484375 369.886719 186.976562 370.25 187.359375 370.457031 C 187.804688 370.195312 188.269531 369.859375 188.738281 369.511719 C 199.371094 361.613281 325.429688 265.703125 325.429688 158.515625 C 325.429688 82.542969 263.914062 20.957031 188.027344 20.957031 "/></g><g clip-rule="nonzero" clip-path="url(#70246e3d83)"><path style=" stroke:none;fill-rule:nonzero;fill:#4d8ab4;fill-opacity:1;" d="M 321.691406 126.550781 L 321.691406 126.589844 L 321.703125 126.589844 C 321.699219 126.574219 321.695312 126.5625 321.691406 126.550781 Z M 316.097656 128.8125 L 321.066406 128.007812 L 321.066406 128.445312 L 320.898438 128.445312 L 320.898438 128.742188 L 321.527344 128.742188 L 321.527344 128.445312 L 321.359375 128.445312 L 321.359375 127.628906 L 321.335938 126.882812 L 321.34375 126.882812 L 321.476562 127.433594 C 321.515625 127.578125 321.546875 127.699219 321.582031 127.800781 L 321.882812 128.742188 L 322.152344 128.742188 L 322.152344 128.5625 C 322.054688 128.121094 321.964844 127.683594 321.863281 127.246094 L 321.894531 127.898438 L 321.886719 127.898438 L 321.71875 127.183594 L 321.4375 126.292969 L 320.898438 126.292969 L 320.898438 126.589844 L 321.066406 126.589844 L 321.066406 127.445312 L 310.425781 129.171875 C 310.417969 129.160156 310.414062 129.152344 310.402344 129.140625 L 310.25 128.953125 C 310.183594 128.867188 310.132812 128.789062 310.105469 128.714844 C 310.078125 128.644531 310.0625 128.570312 310.0625 128.5 C 310.0625 128.378906 310.109375 128.320312 310.203125 128.320312 C 310.261719 128.320312 310.304688 128.34375 310.328125 128.390625 C 310.355469 128.433594 310.367188 128.507812 310.367188 128.609375 L 310.367188 128.792969 L 310.664062 128.792969 L 310.664062 128.0625 L 310.367188 128.0625 L 310.367188 128.136719 C 310.296875 128.0625 310.214844 128.023438 310.121094 128.023438 C 310.007812 128.023438 309.914062 128.070312 309.84375 128.175781 C 309.769531 128.277344 309.734375 128.40625 309.734375 128.570312 C 309.734375 128.703125 309.757812 128.820312 309.800781 128.917969 C 309.84375 129.019531 309.933594 129.152344 310.058594 129.316406 C 310.1875 129.476562 310.265625 129.582031 310.296875 129.628906 C 310.328125 129.675781 310.355469 129.738281 310.375 129.8125 C 310.398438 129.882812 310.410156 129.949219 310.410156 130.011719 C 310.410156 130.085938 310.394531 130.140625 310.363281 130.183594 C 310.332031 130.230469 310.289062 130.25 310.238281 130.25 C 310.167969 130.25 310.125 130.222656 310.097656 130.171875 C 310.070312 130.117188 310.054688 130.023438 310.054688 129.894531 L 310.054688 129.667969 L 309.757812 129.667969 L 309.757812 130.511719 L 310.054688 130.511719 L 310.054688 130.433594 C 310.128906 130.511719 310.214844 130.550781 310.316406 130.550781 C 310.441406 130.550781 310.542969 130.492188 310.625 130.386719 C 310.710938 130.273438 310.75 130.132812 310.75 129.960938 C 310.75 129.871094 310.730469 129.78125 310.703125 129.6875 L 315.546875 128.902344 L 315.546875 135.578125 L 287.988281 151.683594 L 287.988281 154.300781 L 289.210938 154.300781 C 289.21875 155.171875 289.929688 155.878906 290.804688 155.878906 L 290.804688 155.882812 C 292.941406 155.882812 294.675781 157.617188 294.675781 159.757812 C 294.683594 160.628906 295.390625 161.335938 296.269531 161.335938 L 296.269531 163.460938 L 298.082031 163.460938 L 298.082031 164.957031 L 299.050781 164.957031 L 299.050781 196.128906 L 297.023438 196.128906 L 297.023438 199.21875 L 298.082031 199.21875 L 298.082031 200.722656 L 299.050781 200.722656 L 299.050781 210.714844 L 298.082031 210.714844 L 298.082031 211.847656 L 299.050781 211.847656 L 299.050781 228.03125 L 297.023438 228.03125 L 297.023438 231.128906 L 298.082031 231.128906 L 298.082031 232.625 L 299.050781 232.625 L 299.050781 238.226562 L 294.804688 238.089844 C 294.804688 238.089844 294.804688 237.234375 294.769531 235.757812 C 294.707031 232.742188 294.527344 227.117188 294.035156 220.816406 C 293.972656 219.984375 293.902344 219.132812 293.824219 218.277344 C 293.671875 216.570312 293.492188 214.839844 293.289062 213.113281 C 291.832031 200.789062 280.722656 190.1875 271.847656 186.464844 C 263.886719 183.117188 243.023438 177.546875 238.835938 176.441406 C 238.710938 176.261719 238.574219 175.976562 238.574219 175.566406 C 238.574219 174.808594 239.878906 174.933594 239.878906 173.710938 C 239.878906 172.820312 239.257812 172.359375 238.6875 172.167969 C 238.589844 171.84375 238.496094 171.445312 238.496094 171.132812 C 238.496094 170.484375 239.613281 170.59375 239.613281 169.550781 C 239.613281 168.734375 238.996094 168.339844 238.488281 168.203125 C 238.460938 168.058594 238.441406 167.914062 238.441406 167.789062 C 238.441406 167.222656 239.417969 167.316406 239.417969 166.40625 C 239.417969 165.710938 238.910156 165.363281 238.46875 165.238281 C 238.429688 165.054688 238.398438 164.867188 238.398438 164.710938 C 238.398438 164.207031 239.261719 164.292969 239.261719 163.484375 C 239.261719 162.824219 238.746094 162.515625 238.34375 162.425781 L 238.089844 161.449219 L 237.84375 162.425781 C 237.441406 162.515625 236.925781 162.824219 236.925781 163.484375 C 236.925781 164.292969 237.785156 164.207031 237.785156 164.710938 C 237.785156 164.867188 237.757812 165.054688 237.710938 165.238281 C 237.277344 165.363281 236.769531 165.710938 236.769531 166.40625 C 236.769531 167.316406 237.742188 167.222656 237.742188 167.789062 C 237.742188 167.914062 237.722656 168.058594 237.699219 168.203125 C 237.1875 168.339844 236.570312 168.734375 236.570312 169.550781 C 236.570312 170.59375 237.6875 170.484375 237.6875 171.132812 C 237.6875 171.445312 237.59375 171.84375 237.496094 172.167969 C 236.929688 172.359375 236.304688 172.820312 236.304688 173.710938 C 236.304688 174.933594 237.613281 174.808594 237.613281 175.566406 C 237.613281 175.976562 237.476562 176.261719 237.347656 176.441406 C 233.160156 177.546875 212.300781 183.117188 204.335938 186.464844 C 195.464844 190.1875 184.355469 200.789062 182.894531 213.113281 C 182.691406 214.839844 182.515625 216.570312 182.363281 218.277344 C 182.285156 219.132812 182.214844 219.984375 182.148438 220.816406 C 182.273438 220.785156 182.386719 220.753906 182.492188 220.726562 C 182.386719 220.753906 182.273438 220.785156 182.148438 220.816406 C 181.65625 227.117188 181.476562 232.742188 181.414062 235.757812 C 181.386719 236.910156 181.382812 237.683594 181.378906 237.96875 L 176.082031 238.152344 L 176.082031 240.136719 L 175.957031 240.136719 L 175.957031 241.390625 L 176.082031 241.390625 L 176.082031 244.054688 L 147.03125 244.054688 L 147.03125 217.050781 L 145.289062 214.410156 L 145.289062 187.402344 L 144.085938 184.761719 L 144.085938 163.71875 L 143.488281 162.179688 L 143.488281 145.574219 L 142.996094 131.128906 L 141.117188 128.96875 L 139.238281 131.128906 L 138.75 145.574219 L 138.75 162.179688 L 138.148438 163.71875 L 138.148438 184.761719 L 136.945312 187.402344 L 136.945312 214.410156 L 135.203125 217.050781 L 135.203125 217.640625 C 134.949219 217.640625 134.652344 217.640625 134.335938 217.640625 C 134.496094 214.199219 132.050781 213.050781 131.578125 212.726562 C 131.546875 212.707031 131.515625 212.679688 131.480469 212.660156 C 131.480469 212.652344 131.488281 212.582031 131.378906 212.523438 C 131.261719 212.460938 130.347656 211.757812 130.347656 211.757812 L 130.347656 211.5625 C 130.464844 211.539062 130.558594 211.421875 130.558594 211.28125 C 130.558594 211.121094 130.445312 210.992188 130.308594 210.992188 L 130.277344 210.992188 L 130.277344 210.871094 C 130.363281 210.855469 130.429688 210.773438 130.429688 210.667969 C 130.429688 210.554688 130.347656 210.460938 130.25 210.460938 L 130.277344 210.460938 L 130.277344 210.25 L 130.332031 210.25 L 130.195312 207.03125 L 130.058594 210.25 L 130.121094 210.25 L 130.121094 210.460938 L 130.152344 210.460938 C 130.054688 210.460938 129.976562 210.554688 129.976562 210.667969 C 129.976562 210.765625 130.039062 210.851562 130.121094 210.867188 L 130.121094 210.992188 L 130.113281 210.992188 C 129.976562 210.992188 129.863281 211.121094 129.863281 211.28125 C 129.863281 211.410156 129.941406 211.523438 130.046875 211.554688 L 130.046875 211.757812 C 130.046875 211.757812 129.128906 212.460938 129.019531 212.523438 C 128.902344 212.582031 128.910156 212.660156 128.910156 212.660156 C 128.894531 212.671875 128.875 212.683594 128.859375 212.699219 C 128.378906 213.011719 125.902344 214.109375 125.992188 217.570312 L 130.164062 217.613281 L 130.191406 217.613281 C 130.082031 217.613281 126.679688 217.652344 125.089844 217.640625 L 125.089844 215.171875 L 122.109375 215.171875 L 122.109375 206.984375 L 123.347656 205.972656 C 123.289062 205.996094 122.539062 206 121.589844 206 C 121.75 202.554688 119.304688 201.40625 118.832031 201.082031 C 118.800781 201.058594 118.769531 201.039062 118.734375 201.015625 C 118.734375 201.007812 118.742188 200.9375 118.632812 200.878906 C 118.515625 200.816406 117.601562 200.113281 117.601562 200.113281 L 117.601562 199.917969 C 117.722656 199.898438 117.8125 199.78125 117.8125 199.636719 C 117.8125 199.480469 117.699219 199.351562 117.5625 199.351562 L 117.53125 199.351562 L 117.53125 199.226562 C 117.621094 199.210938 117.6875 199.128906 117.6875 199.023438 C 117.6875 198.910156 117.605469 198.820312 117.503906 198.820312 L 117.53125 198.820312 L 117.53125 198.601562 L 117.589844 198.601562 L 117.449219 195.390625 L 117.316406 198.601562 L 117.375 198.601562 L 117.375 198.820312 L 117.410156 198.820312 C 117.308594 198.820312 117.230469 198.910156 117.230469 199.023438 C 117.230469 199.125 117.292969 199.210938 117.375 199.226562 L 117.375 199.351562 L 117.371094 199.351562 C 117.230469 199.351562 117.117188 199.480469 117.117188 199.636719 C 117.117188 199.769531 117.199219 199.878906 117.300781 199.914062 L 117.300781 200.113281 C 117.300781 200.113281 116.382812 200.816406 116.273438 200.878906 C 116.15625 200.941406 116.167969 201.015625 116.167969 201.015625 C 116.148438 201.027344 116.132812 201.042969 116.113281 201.050781 C 115.816406 201.246094 114.769531 201.738281 114.023438 202.886719 L 114.023438 195.824219 C 114.964844 195.300781 116.527344 194.679688 116.527344 194.679688 L 114.023438 194.679688 L 114.023438 193.023438 C 114.070312 192.003906 114.046875 191.035156 113.980469 190.109375 L 113.980469 189.867188 L 113.953125 189.867188 C 112.894531 177.601562 102.472656 173.410156 100.308594 172.148438 C 100.195312 172.078125 100.070312 172.007812 99.949219 171.933594 C 99.949219 171.933594 100 171.605469 99.441406 171.34375 C 98.886719 171.078125 94.421875 168.085938 94.421875 168.085938 L 94.421875 167.234375 C 94.9375 167.085938 95.316406 166.621094 95.316406 166.0625 C 95.316406 165.390625 94.769531 164.839844 94.097656 164.839844 L 94.058594 164.839844 L 94.058594 164.3125 C 94.464844 164.234375 94.773438 163.875 94.773438 163.449219 C 94.773438 162.96875 94.378906 162.578125 93.898438 162.578125 L 94.058594 162.578125 L 94.058594 161.664062 L 94.359375 161.664062 L 93.691406 147.980469 L 93.023438 161.664062 L 93.296875 161.664062 L 93.296875 162.578125 L 93.425781 162.578125 C 92.941406 162.578125 92.550781 162.96875 92.550781 163.449219 C 92.550781 163.890625 92.875 164.25 93.296875 164.3125 L 93.296875 164.839844 L 93.148438 164.839844 C 92.476562 164.839844 91.929688 165.390625 91.929688 166.0625 C 91.929688 166.667969 92.378906 167.167969 92.957031 167.261719 L 92.957031 168.085938 C 92.957031 168.085938 88.496094 171.078125 87.941406 171.34375 C 87.382812 171.605469 87.433594 171.933594 87.433594 171.933594 C 87.308594 172.007812 87.1875 172.078125 87.074219 172.148438 C 84.910156 173.410156 74.488281 177.601562 73.425781 189.867188 L 73.402344 189.867188 L 73.402344 190.109375 C 73.335938 191.035156 73.3125 192.003906 73.355469 193.023438 L 73.355469 194.679688 L 70.851562 194.679688 C 70.851562 194.679688 72.417969 195.300781 73.355469 195.824219 L 73.355469 202.886719 C 72.613281 201.738281 71.566406 201.246094 71.265625 201.050781 C 71.25 201.042969 71.230469 201.027344 71.214844 201.015625 C 71.214844 201.015625 71.222656 200.941406 71.109375 200.878906 C 70.996094 200.816406 70.082031 200.113281 70.082031 200.113281 L 70.082031 199.914062 C 70.183594 199.878906 70.261719 199.769531 70.261719 199.636719 C 70.261719 199.480469 70.152344 199.351562 70.011719 199.351562 L 70.007812 199.351562 L 70.007812 199.226562 C 70.089844 199.210938 70.152344 199.125 70.152344 199.023438 C 70.152344 198.910156 70.074219 198.820312 69.972656 198.820312 L 70.007812 198.820312 L 70.007812 198.601562 L 70.066406 198.601562 L 69.929688 195.390625 L 69.792969 198.601562 L 69.847656 198.601562 L 69.847656 198.820312 L 69.875 198.820312 C 69.777344 198.820312 69.695312 198.910156 69.695312 199.023438 C 69.695312 199.128906 69.761719 199.210938 69.847656 199.226562 L 69.847656 199.351562 L 69.820312 199.351562 C 69.683594 199.351562 69.566406 199.480469 69.566406 199.636719 C 69.566406 199.78125 69.660156 199.898438 69.78125 199.917969 L 69.78125 200.113281 C 69.78125 200.113281 68.863281 200.816406 68.75 200.878906 C 68.640625 200.9375 68.644531 201.007812 68.644531 201.015625 C 68.613281 201.039062 68.582031 201.058594 68.550781 201.082031 C 68.074219 201.40625 65.632812 202.554688 65.789062 206 C 64.839844 206 64.089844 205.996094 64.03125 205.972656 L 65.273438 206.984375 L 65.273438 215.171875 L 62.292969 215.171875 L 62.292969 217.640625 C 61.984375 217.640625 61.605469 217.644531 61.199219 217.640625 C 93.003906 299.179688 178.042969 363.625 186.082031 369.585938 C 186.484375 369.886719 186.976562 370.25 187.359375 370.457031 C 187.804688 370.195312 188.269531 369.859375 188.738281 369.511719 C 199.371094 361.613281 325.429688 265.703125 325.429688 158.515625 C 325.429688 152.347656 325.019531 146.285156 324.234375 140.335938 L 316.097656 135.578125 Z M 59.609375 213.421875 C 60.457031 214.113281 61.449219 215.355469 61.390625 217.570312 L 61.171875 217.570312 C 60.636719 216.191406 60.117188 214.808594 59.609375 213.421875 "/></g><path style=" stroke:none;fill-rule:nonzero;fill:#925551;fill-opacity:1;" d="M 200.746094 153.882812 C 199.070312 153.046875 193.914062 152.4375 187.8125 152.4375 C 181.125 152.4375 175.582031 153.171875 174.5 154.128906 C 174.421875 154.242188 174.351562 154.351562 174.296875 154.472656 L 175.773438 156.664062 C 175.773438 155.664062 181.164062 154.855469 187.8125 154.855469 C 194.460938 154.855469 199.851562 155.664062 199.851562 156.664062 L 201.328125 154.472656 C 201.328125 154.472656 201.121094 154.230469 200.746094 153.882812 Z M 187.8125 148.082031 C 179.386719 148.082031 172.507812 149.070312 172.027344 150.320312 C 172.023438 150.367188 172.003906 150.410156 172 150.460938 L 174.296875 152.4375 C 174.296875 151.316406 180.347656 150.40625 187.8125 150.40625 C 195.277344 150.40625 201.328125 151.316406 201.328125 152.4375 L 203.625 150.460938 C 203.625 150.460938 203.5625 150.3125 203.421875 150.078125 C 202.210938 148.945312 195.683594 148.082031 187.8125 148.082031 Z M 187.8125 143.597656 C 177.90625 143.597656 169.871094 144.804688 169.871094 146.296875 L 172 148.082031 C 172 146.769531 179.082031 145.707031 187.8125 145.707031 C 196.542969 145.707031 203.625 146.769531 203.625 148.082031 L 205.753906 146.296875 C 205.753906 146.296875 205.738281 146.226562 205.707031 146.113281 C 205.09375 144.707031 197.320312 143.597656 187.8125 143.597656 Z M 187.707031 139.019531 C 176.574219 139.019531 167.546875 140.703125 167.546875 142.785156 L 169.871094 143.597656 C 169.871094 142.109375 177.90625 140.902344 187.8125 140.902344 C 197.71875 140.902344 205.753906 142.109375 205.753906 143.597656 L 207.867188 142.785156 L 206.980469 141.675781 C 204.449219 140.136719 196.777344 139.019531 187.707031 139.019531 Z M 170.648438 138.234375 L 170.648438 136.914062 C 170.648438 135.140625 178.332031 133.707031 187.8125 133.707031 C 197.292969 133.707031 204.976562 135.140625 204.976562 136.914062 L 204.976562 138.296875 C 201.441406 137.207031 195.035156 136.476562 187.707031 136.476562 C 180.523438 136.476562 174.21875 137.179688 170.648438 138.234375 "/><path style=" stroke:none;fill-rule:nonzero;fill:#d9373e;fill-opacity:1;" d="M 189.710938 99.527344 L 189.460938 91.859375 L 186.164062 91.859375 L 185.914062 99.527344 Z M 187.078125 63.929688 L 188.546875 63.929688 L 188.265625 55.320312 L 187.359375 55.320312 Z M 186.773438 73.273438 L 186.472656 82.410156 L 189.148438 82.410156 L 188.851562 73.273438 Z M 199.207031 158.273438 C 199.355469 158.457031 199.503906 158.648438 199.640625 158.851562 C 199.640625 158.851562 193.730469 159.871094 193.730469 166.785156 L 181.683594 166.785156 C 181.683594 159.871094 175.773438 158.851562 175.773438 158.851562 C 175.863281 158.71875 175.960938 158.59375 176.054688 158.46875 C 177.226562 157.652344 182.046875 157.046875 187.8125 157.046875 C 193.109375 157.046875 197.597656 157.5625 199.207031 158.273438 "/><g clip-rule="nonzero" clip-path="url(#e8af2e4c3a)"><path style=" stroke:none;fill-rule:nonzero;fill:#d8d7d5;fill-opacity:1;" d="M 187.707031 166.785156 L 181.703125 166.785156 L 178.703125 363.890625 C 182.398438 366.828125 184.972656 368.765625 186.082031 369.585938 C 186.484375 369.886719 186.976562 370.25 187.359375 370.457031 C 187.804688 370.195312 188.269531 369.859375 188.738281 369.511719 C 189.96875 368.597656 192.753906 366.5 196.707031 363.339844 L 193.710938 166.785156 Z M 201.734375 132.574219 L 201.734375 135.039062 C 198.617188 134.230469 193.542969 133.707031 187.8125 133.707031 C 181.949219 133.707031 176.777344 134.257812 173.679688 135.09375 L 173.679688 132.574219 C 173.679688 131.523438 177.003906 130.621094 181.789062 130.203125 L 181.789062 123.492188 C 181.789062 122.984375 183.566406 122.558594 186.019531 122.414062 L 186.019531 120.773438 C 183.566406 120.628906 181.789062 120.203125 181.789062 119.699219 L 181.789062 117.910156 C 181.789062 117.40625 183.566406 116.980469 186.019531 116.839844 L 186.019531 116.234375 C 183.566406 116.09375 181.789062 115.664062 181.789062 115.164062 L 181.789062 113.375 C 181.789062 112.804688 185.863281 112.296875 185.496094 112.316406 L 185.914062 99.527344 L 189.710938 99.527344 L 190.128906 112.316406 C 189.761719 112.296875 193.835938 112.804688 193.835938 113.375 L 193.835938 115.164062 C 193.835938 115.679688 191.953125 116.117188 189.394531 116.246094 L 189.394531 116.828125 C 191.953125 116.960938 193.835938 117.394531 193.835938 117.910156 L 193.835938 119.699219 C 193.835938 120.214844 191.953125 120.652344 189.394531 120.78125 L 189.394531 122.40625 C 191.953125 122.535156 193.835938 122.972656 193.835938 123.492188 L 193.835938 130.222656 C 198.507812 130.648438 201.734375 131.539062 201.734375 132.574219 Z M 188.265625 55.320312 L 187.8125 41.492188 L 187.359375 55.320312 Z M 187.078125 63.929688 L 186.773438 73.273438 L 188.851562 73.273438 L 188.546875 63.929688 Z M 189.148438 82.410156 L 186.472656 82.410156 L 186.164062 91.859375 L 189.460938 91.859375 Z M 175.773438 158.851562 C 175.773438 157.855469 181.164062 157.046875 187.8125 157.046875 C 194.460938 157.046875 199.851562 157.855469 199.851562 158.851562 L 199.851562 156.664062 C 199.851562 155.664062 194.460938 154.855469 187.8125 154.855469 C 181.164062 154.855469 175.773438 155.664062 175.773438 156.664062 Z M 174.296875 154.472656 C 174.296875 153.347656 180.347656 152.4375 187.8125 152.4375 C 195.277344 152.4375 201.328125 153.347656 201.328125 154.472656 L 201.328125 152.4375 C 201.328125 151.316406 195.277344 150.40625 187.8125 150.40625 C 180.347656 150.40625 174.296875 151.316406 174.296875 152.4375 Z M 203.625 148.082031 C 203.625 146.769531 196.542969 145.707031 187.8125 145.707031 C 179.082031 145.707031 172 146.769531 172 148.082031 L 172 150.460938 C 172 149.144531 179.082031 148.082031 187.8125 148.082031 C 196.542969 148.082031 203.625 149.144531 203.625 150.460938 Z M 205.753906 143.597656 C 205.753906 142.109375 197.71875 140.902344 187.8125 140.902344 C 177.90625 140.902344 169.871094 142.109375 169.871094 143.597656 L 169.871094 146.296875 C 169.871094 144.804688 177.90625 143.597656 187.8125 143.597656 C 197.71875 143.597656 205.753906 144.804688 205.753906 146.296875 Z M 207.867188 142.785156 C 207.867188 140.703125 198.84375 139.019531 187.707031 139.019531 C 176.574219 139.019531 167.546875 140.703125 167.546875 142.785156 L 167.546875 140.242188 C 167.546875 138.160156 176.574219 136.476562 187.707031 136.476562 C 198.84375 136.476562 207.867188 138.160156 207.867188 140.242188 L 207.867188 142.785156 "/></g></g></svg>